<svg xmlns="http://www.w3.org/2000/svg" viewBox="0 0 108 108">
  <!-- 1. The Background: Fills the whole space so no white border appears -->
  <rect width="108" height="108" fill="#8B5E3C"/>
  
  <!-- 2. The Beaver: Centered on top -->
  <g transform="translate(54, 54) scale(0.13) translate(-256, -256)">
    <path fill="#FFFFFF" d="M456.5-91.1c5.4-105.7-49.2-152.6-68.4-163.2l-8.2 16.5c0 0-16.5-26-57.8-33v16.5c0 0-24.8-26-66.1-33h-0.1c-41.3 7-66.1 33-66.1 33v-16.5c-41.3 7-57.8 33-57.8 33l-8.2-16.5c-19.2 10.5-73.8 57.4-68.4 163.2C20.8-49.1 0 1.1 0 48.6c0 111.8 114.6 166.6 256 166.6s256-54.8 256-166.6c0-47.5-20.8-97.7-45.5-139.7z M379.9 20.3c0 66.2-55.4 119.8-123.9 119.8S132.1 86.5 132.1 20.3s37.2-119.8 123.9-119.8 123.9 53.6 123.9 119.8z"/>
    <path fill="#2D2D2D" d="M90.8-16.8c-9.1 0-16.5-11.1-16.5-24.8s7.4-24.8 16.5-24.8 16.5 11.1 16.5 24.8-7.4 24.8-16.5 24.8z M421.2-16.8c-9.1 0-16.5-11.1-16.5-24.8s7.4-24.8 16.5-24.8 16.5 11.1 16.5 24.8-7.4 24.8-16.5 24.8z"/>
    <path fill="#2D2D2D" d="M355.1 206.1c-3.4 38-10.9 74.3-99.1 74.3s-95.6-36.4-99.1-74.3v-26.2h198.2v26.2z"/>
    <path fill="#FFFFFF" d="M235.3 206.1V131.8c0-11.3 9.3-20.6 20.7-20.6s20.7 9.3 20.7 20.6v74.3c0 11.3-9.3 20.6-20.7 20.6s-20.7-9.3-20.7-20.6z M276.7 206.1V131.8c0-11.3 9.3-20.6 20.7-20.6s20.7 9.3 20.7 20.6v74.3c0 11.3-9.3 20.6-20.7 20.6s-20.7-9.3-20.7-20.6z"/>
    <path fill="#2D2D2D" d="M330.3 42.1c-7.5-2.3-12.7-9.1-12.7-17l0 0c0-9.7 7.9-17.6 17.7-17.6h111.3c9.7 0 17.7 7.9 17.7 17.6l0 0c0 7.9-5.2 14.7-12.7 17-13.2 4-34 12.4-48.7 28-7 7.4-18.7 7.4-25.7 0-14.7-15.7-35.5-24-48.8-28.1z"/>
  </g>
</svg>
