<svg xmlns="http://www.w3.org/2000/svg" width="512" height="512" viewBox="0 0 512 512">
  <!-- 1. The Orange Background (Fills the whole square) -->
  <rect width="512" height="512" fill="#fb923c"/>
  
  <!-- 2. The White Fork & Spoon (Centered) -->
  <path fill="#FFFFFF" transform="translate(128, 128) scale(10.66)" d="M8.1 13.34l2.83-2.83L3.91 3.5c-0.39-0.39-1.02-0.39-1.41 0L1.08 4.91c-0.39 0.39-0.39 1.02 0 1.41L8.1 13.34z M20.48 3.5 l-7.07 7.07l2.83 2.83l7.07-7.07c0.39-0.39 0.39-1.02 0-1.41l-1.41-1.41C21.51 3.11 20.87 3.11 20.48 3.5z M8.9 14.14L7.48 15.55 l6.6 6.6c0.78 0.78 2.05 0.78 2.83 0l2.12-2.12c0.78-0.78 0.78-2.05 0-2.83L8.9 14.14z"/>
</svg>
