<svg xmlns="http://www.w3.org/2000/svg" width="108" height="108" viewBox="0 0 108 108">
  <defs>
    <linearGradient id="iconGradient" x1="0" y1="0" x2="1" y2="1">
      <stop offset="0%" stop-color="#3b82f6" />
      <stop offset="100%" stop-color="#22d3ee" />
    </linearGradient>
  </defs>
  <!-- Beaver graphic, scaled and centered for adaptive icons -->
  <g transform="translate(54,54) scale(0.12)">
    <path fill="url(#iconGradient)" d="M456.5-91.1c5.4-105.7-49.2-152.6-68.4-163.2l-8.2 16.5c0 0-16.5-26-57.8-33v16.5c0 0-24.8-26-66.1-33h-0.1c-41.3 7-66.1 33-66.1 33v-16.5c-41.3 7-57.8 33-57.8 33l-8.2-16.5c-19.2 10.5-73.8 57.4-68.4 163.2C20.8-49.1 0 1.1 0 48.6c0 111.8 114.6 166.6 256 166.6s256-54.8 256-166.6c0-47.5-20.8-97.7-45.5-139.7z M379.9 20.3c0 66.2-55.4 119.8-123.9 119.8S132.1 86.5 132.1 20.3s37.2-119.8 123.9-119.8 123.9 53.6 123.9 119.8z M355.1 206.1c-3.4 38-10.9 74.3-99.1 74.3s-95.6-36.4-99.1-74.3v-26.2h198.2v26.2z M256 197.9c-41 0-74.3-14.8-74.3-33s33.3-33 74.3-33 74.3 14.8 74.3 33-33.3 33-74.3 33z M235.3 206.1V131.8c0-11.3 9.3-20.6 20.7-20.6s20.7 9.3 20.7 20.6v74.3c0 11.3-9.3 20.6-20.7 20.6s-20.7-9.3-20.7-20.6z M276.7 206.1V131.8c0-11.3 9.3-20.6 20.7-20.6s20.7 9.3 20.7 20.6v74.3c0 11.3-9.3 20.6-20.7 20.6s-20.7-9.3-20.7-20.6z M256-50c-77.5 0-140.4 78.1-140.4 174.5 0 31.1 2 56.5 5.7 77.5 2.3 12.7 14.1 21.7 27 20.1 60.3-7.1 72.6-45.1 72.6-59.3 0-39.5 17.5-51.1 35.1-51.1s35.1 11.6 35.1 51.1c0 14.2 12.3 52.1 72.6 59.3 12.8 1.5 24.7-7.4 27-20.1 3.7-21 5.7-46.4 5.7-77.5C396.4 28.1 333.5-50 256-50z M256 32.7c-41 0-74.3-18.5-74.3-41.3s33.3-41.3 74.3-41.3 74.3 18.5 74.3 41.3-33.3 41.3-74.3 41.3z M90.8-16.8c-9.1 0-16.5-11.1-16.5-24.8s7.4-24.8 16.5-24.8 16.5 11.1 16.5 24.8-7.4 24.8-16.5 24.8z M421.2-16.8c-9.1 0-16.5-11.1-16.5-24.8s7.4-24.8 16.5-24.8 16.5 11.1 16.5 24.8-7.4 24.8-16.5 24.8z M330.3 42.1c-7.5-2.3-12.7-9.1-12.7-17l0 0c0-9.7 7.9-17.6 17.7-17.6h111.3c9.7 0 17.7 7.9 17.7 17.6l0 0c0 7.9-5.2 14.7-12.7 17-13.2 4-34 12.4-48.7 28-7 7.4-18.7 7.4-25.7 0-14.7-15.7-35.5-24-48.8-28.1z"/>
  </g>
</svg>
