<svg xmlns="http://www.w3.org/2000/svg" viewBox="0 0 108 108">
  <g transform="translate(20 20) scale(0.68)">
    <path fill="#000000" d="M81.5 28.6c1-18.6-8.7-26.8-12-28.7l-1.5 2.9c0 0-2.9-4.6-10.2-5.8v2.9c0 0-4.4-4.6-11.7-5.8h0c-7.3 1.2-11.7 5.8-11.7 5.8v-2.9c-7.3 1.2-10.2 5.8-10.2 5.8l-1.5-2.9c-3.4 1.8-13 10.1-12 28.7C7.3 36 3.6 44.5 3.6 52.8c0 19.6 20.1 29.3 44.9 29.3s44.9-9.6 44.9-29.3c0-8.3-3.7-16.8-8.9-24.2z M68.8 32c0 11.6-9.7 21-21.7 21s-21.7-9.4-21.7-21 6.5-21 21.7-21 21.7 9.4 21.7 21z M48.5 20.3h0c-13.6 0-24.6 13.7-24.6 30.6 0 5.4.4 9.9 1 13.6.4 2.2 2.5 3.8 4.7 3.5 10.6-1.3 12.7-7.9 12.7-10.4 0-6.9 3.1-9 6.2-9s6.2 2 6.2 9c0 2.5 2.2 9.1 12.7 10.4 2.2.2 4.4-1.3 4.7-3.5.7-3.7 1-8.1 1-13.6C73.1 34 62.1 20.3 48.5 20.3z M48.5 34.1c-7.2 0-13-3.2-13-7.2s5.8-7.2 13-7.2 13 3.2 13 7.2-5.8 7.2-13 7.2z M33.6 35.8L33.6 35.8c0 1.4.9 2.6 2.2 3 .1.1 5.8 2.2 8.5 4.9.1.1 3.3 2.6 4.5 2.6s4.4-2.6 4.5-2.6c2.7-2.8 8.4-4.9 8.5-4.9 1.3-.4 2.2-1.6 2.2-3v0c0-1.7-1.4-3.1-3.1-3.1H36.7C35 32.7 33.6 34.1 33.6 35.8z M64 64.6c-.6 6.7-1.9 13-15.5 13S33.9 71.2 33.3 64.6v-4.6h30.7v4.6z M48.5 63.2c-7.2 0-13-2.6-13-5.8s5.8-5.8 13-5.8 13 2.6 13 5.8-5.8 5.8-13 5.8z M43 64.6h-3.6c-2 0-3.6-1.6-3.6-3.6V49.2c0-2 1.6-3.6 3.6-3.6h0c2 0 3.6 1.6 3.6 3.6v11.8c0 2-1.6 3.6-3.6 3.6z M57.6 64.6h-3.6c-2 0-3.6-1.6-3.6-3.6V49.2c0-2 1.6-3.6 3.6-3.6h0c2 0 3.6 1.6 3.6 3.6v11.8c0 2-1.6 3.6-3.6 3.6z M17.6 25.4c-1.6 0-2.9-1.9-2.9-4.3s1.3-4.3 2.9-4.3 2.9 1.9 2.9 4.3-1.3 4.3-2.9 4.3z M79.3 25.4c-1.6 0-2.9-1.9-2.9-4.3s1.3-4.3 2.9-4.3 2.9 1.9 2.9 4.3-1.3 4.3-2.9 4.3z"/>
  </g>
</svg>

