<svg xmlns="http://www.w3.org/2000/svg" width="512" height="512" viewBox="0 0 512 512">
<g transform="translate(110, 80) scale(0.65)" fill="#000000">
	<g transform="translate(20, 0)">
		<path d="M112.44,202.771L73.872,28.953C70.215,12.47,55.598,0.741,38.715,0.741c-6.956,0-12.596,5.639-12.596,12.596v204.133
			v30.379v231.538c0,18.011,14.601,32.612,32.612,32.612c18.853,0,33.771-15.955,32.543-34.741L76.268,247.849
			c11.237,0,21.866-5.099,28.898-13.863C112.198,225.223,114.874,213.741,112.44,202.771z"/>
	</g>
	<g transform="translate(110, 0)">
		<path d="M280.267,0.37c-9.207,0-16.672,7.464-16.672,16.671v86.322h-14.819V17.042c0-9.207-7.464-16.671-16.672-16.671
			s-16.672,7.464-16.672,16.671v86.322h-14.449V17.042c0-9.207-7.464-16.671-16.671-16.671s-16.672,7.464-16.672,16.671v86.322
			h-0.371v26.733c0,14.914,5.889,29.224,16.387,39.818c12.643,12.758,19.471,30.162,18.879,48.114l-8.407,254.722
			C193.421,494.196,210.63,512,232.105,512c21.454,0,38.683-17.783,37.975-39.249l-8.407-254.722
			c-0.592-17.952,6.236-35.355,18.879-48.114c10.061-10.153,16.387-24.327,16.387-39.818v-26.733V17.042
			C296.938,7.834,289.474,0.37,280.267,0.37z"/>
	</g>
</g>
</svg>
