<svg xmlns="http://www.w3.org/2000/svg" viewBox="0 0 108 108">
  <rect width="108" height="108" fill="#3b82f6"/>
  <path fill="#ffffff" d="M48,26 C45.24,26 43,28.24 43,31 L43,82 C43,84.76 45.24,87 48,87 L48,87 C50.76,87 53,84.76 53,82 L53,31 C53,28.24 50.76,26 48,26 Z"/>
  <path fill="#ffffff" d="M60,26 C57.24,26 55,28.24 55,31 L55,54 C55,55.1 55.9,56 57,56 L63,56 C64.1,56 65,55.1 65,54 L65,31 C65,28.24 62.76,26 60,26 Z"/>
  <path fill="#ffffff" d="M60,26 C62.76,26 65,23.76 65,21 L65,21 C65,18.24 62.76,16 60,16 L60,16 C57.24,16 55,18.24 55,21 L55,21 C55,23.76 57.24,26 60,26 Z"/>
</svg>
